<svg xmlns="http://www.w3.org/2000/svg" xmlns:xlink="http://www.w3.org/1999/xlink">
  
  	<!-- more icon -->
  	<symbol id="more-icon" viewBox="0 0 453.834 453.834">
  		<path d="M226.932,0C101.625,0,0.03,101.595,0.03,226.902C0,352.269,101.595,453.834,226.932,453.834      c125.307,0,226.871-101.595,226.871-226.902C453.834,101.595,352.239,0,226.932,0z M226.932,423.465      c-108.344,0-196.502-88.158-196.502-196.502S118.588,30.46,226.932,30.46c108.344-0.03,196.472,88.128,196.472,196.502      C423.434,335.276,335.276,423.465,226.932,423.465z"/>
		<path d="M313.723,177.199l-87.885,87.915l-87.885-87.915c-5.928-5.928-15.565-5.928-21.492,0      s-5.928,15.565,0,21.492l98.585,98.585c2.979,3.04,6.901,4.438,10.792,4.438c3.922,0,7.813-1.49,10.792-4.438l98.555-98.585      c5.928-5.928,5.928-15.565,0-21.492S319.65,171.271,313.723,177.199z"/>
 	</symbol>

	<!-- diary -->
	<symbol id="diary-icon" viewBox="0 0 463 463">
		<path d="M439.5,92h-8.622c-0.015-15.242-0.026-24.509-0.026-24.509c-0.005-4.139-3.361-7.491-7.5-7.491   c-110.843,0-176.933,25.047-191.78,31.337C216.711,85.05,150.522,60,39.5,60c-4.139,0-7.495,3.353-7.5,7.491   c0,0-0.01,9.267-0.026,24.509H23.5C10.542,92,0,102.542,0,115.5v264C0,392.458,10.542,403,23.5,403h416   c12.958,0,23.5-10.542,23.5-23.5v-264C463,102.542,452.458,92,439.5,92z M415.932,356.038   c-93.47,0.951-153.82,19.652-176.932,28.346V104.526c16.004-6.445,77.69-28.42,176.86-29.486   C415.96,166.015,416.079,321.073,415.932,356.038z M224,104.469v279.864c-23.245-8.716-83.637-27.35-177.08-28.296   c-0.134-31.924-0.047-163.943,0.046-255.91c0.017-0.207,0.032-0.415,0.032-0.627c0-0.203-0.015-0.403-0.03-0.602   c0.008-8.321,0.017-16.313,0.025-23.858C146.035,76.1,207.749,97.951,224,104.469z M15,379.5v-264c0-4.687,3.813-8.5,8.5-8.5h8.459   c-0.027,28.295-0.062,68.323-0.084,108.371c-0.021,36.981-0.031,73.975-0.016,101.742c0.008,13.89,0.022,25.473,0.044,33.593   c0.012,4.073,0.025,7.277,0.041,9.469c0.034,4.673,0.046,6.421,2.249,8.625c1.407,1.408,3.316,2.2,5.307,2.2   c64.093,0,113.209,8.753,145.26,17H23.5C18.813,388,15,384.187,15,379.5z M448,379.5c0,4.687-3.813,8.5-8.5,8.5H278.319   c32.002-8.247,81.041-17,145.033-17c1.991,0,3.9-0.792,5.307-2.2c2.202-2.204,2.215-3.952,2.249-8.625   c0.016-2.191,0.029-5.396,0.041-9.469c0.023-8.12,0.037-19.703,0.045-33.593c0.016-27.768,0.005-64.76-0.016-101.742   c-0.023-40.048-0.057-80.076-0.085-108.371h8.608c4.687,0,8.5,3.813,8.5,8.5V379.5z"/>
		<path d="M126.489,127.95c25.47,3.461,49.323,8.413,70.896,14.719c0.703,0.205,1.411,0.303,2.107,0.303   c3.246,0,6.239-2.125,7.195-5.397c1.162-3.977-1.119-8.142-5.095-9.304c-22.287-6.514-46.876-11.622-73.084-15.184   c-4.107-0.564-7.884,2.317-8.441,6.422S122.385,127.393,126.489,127.95z"/>
		<path d="M71.158,122.992c7.941,0.364,15.924,0.876,23.727,1.521c0.21,0.018,0.419,0.025,0.626,0.025   c3.862,0,7.143-2.965,7.466-6.883c0.341-4.128-2.729-7.751-6.857-8.092c-7.984-0.659-16.151-1.183-24.274-1.556   c-4.123-0.162-7.646,3.011-7.836,7.148C63.82,119.294,67.021,122.803,71.158,122.992z"/>
		<path d="M201.594,192.271c-15.129-4.423-31.535-8.241-48.763-11.349c-4.079-0.735-7.978,1.974-8.712,6.05   c-0.735,4.076,1.973,7.977,6.049,8.712c16.709,3.014,32.595,6.709,47.217,10.983c0.703,0.206,1.411,0.304,2.108,0.304   c3.246,0,6.238-2.125,7.195-5.397C207.85,197.599,205.569,193.434,201.594,192.271z"/>
		<path d="M71.158,186.992c16.106,0.739,32.065,2.065,47.434,3.939c0.308,0.038,0.615,0.057,0.917,0.057   c3.737,0,6.972-2.789,7.436-6.593c0.501-4.111-2.425-7.852-6.537-8.353c-15.741-1.921-32.08-3.278-48.563-4.035   c-4.123-0.163-7.646,3.011-7.836,7.148C63.82,183.294,67.02,186.802,71.158,186.992z"/>
		<path d="M197.385,174.669c0.702,0.205,1.411,0.303,2.107,0.303c3.246,0,6.239-2.124,7.195-5.397   c1.162-3.976-1.119-8.141-5.095-9.304c-5.233-1.529-10.708-3.01-16.271-4.4c-4.014-1-8.09,1.439-9.095,5.458   c-1.004,4.019,1.439,8.091,5.458,9.095C187.058,171.766,192.34,173.194,197.385,174.669z"/>
		<path d="M71.158,154.992c27.421,1.258,54.004,4.183,79.011,8.692c0.45,0.081,0.898,0.12,1.34,0.12c3.559,0,6.718-2.544,7.372-6.17   c0.735-4.076-1.973-7.977-6.05-8.712c-25.656-4.627-52.904-7.627-80.985-8.915c-4.123-0.172-7.646,3.011-7.836,7.148   C63.82,151.294,67.021,154.803,71.158,154.992z"/>
		<path d="M201.594,224.271c-24.638-7.201-51.955-12.662-81.191-16.229c-4.109-0.505-7.852,2.424-8.353,6.536   c-0.501,4.111,2.425,7.852,6.537,8.353c28.429,3.469,54.941,8.764,78.799,15.738c0.703,0.205,1.411,0.303,2.108,0.303   c3.246,0,6.239-2.125,7.195-5.397C207.85,229.599,205.569,225.434,201.594,224.271z"/>
		<path d="M71.158,218.992c5.299,0.243,10.619,0.552,15.812,0.915c0.179,0.013,0.356,0.019,0.532,0.019   c3.903,0,7.197-3.022,7.474-6.976c0.29-4.132-2.825-7.717-6.957-8.006c-5.313-0.372-10.754-0.688-16.172-0.937   c-4.151-0.174-7.646,3.011-7.836,7.148S67.02,218.802,71.158,218.992z"/>
		<path d="M201.594,288.271c-15.129-4.423-31.535-8.241-48.763-11.349c-4.079-0.734-7.978,1.974-8.712,6.05   c-0.735,4.076,1.973,7.977,6.049,8.712c16.709,3.014,32.595,6.709,47.217,10.983c0.703,0.206,1.411,0.304,2.108,0.304   c3.246,0,6.238-2.125,7.195-5.397C207.85,293.599,205.569,289.434,201.594,288.271z"/>
		<path d="M71.158,282.992c16.106,0.739,32.065,2.065,47.434,3.939c0.308,0.038,0.615,0.057,0.917,0.057   c3.737,0,6.972-2.789,7.436-6.593c0.501-4.111-2.425-7.852-6.537-8.353c-15.741-1.921-32.08-3.278-48.563-4.035   c-4.123-0.155-7.646,3.011-7.836,7.148C63.82,279.294,67.02,282.802,71.158,282.992z"/>
		<path d="M201.593,320.271c-24.64-7.201-51.954-12.661-81.184-16.228c-4.113-0.509-7.851,2.425-8.353,6.536   c-0.501,4.111,2.425,7.852,6.537,8.353c28.423,3.469,54.933,8.763,78.792,15.737c0.703,0.205,1.411,0.303,2.107,0.303   c3.246,0,6.239-2.125,7.195-5.397C207.85,325.598,205.569,321.433,201.593,320.271z"/>
		<path d="M71.158,314.992c5.275,0.242,10.599,0.551,15.823,0.916c0.178,0.013,0.355,0.019,0.532,0.019   c3.903,0,7.197-3.022,7.474-6.977c0.29-4.132-2.826-7.716-6.958-8.005c-5.343-0.374-10.788-0.689-16.182-0.938   c-4.124-0.147-7.646,3.011-7.836,7.148C63.82,311.294,67.02,314.802,71.158,314.992z"/>
		<path d="M197.385,270.669c0.702,0.205,1.411,0.303,2.107,0.303c3.246,0,6.239-2.124,7.195-5.397   c1.162-3.976-1.119-8.141-5.095-9.304c-5.233-1.529-10.708-3.01-16.271-4.4c-4.014-1.003-8.09,1.439-9.095,5.458   c-1.004,4.019,1.439,8.091,5.458,9.095C187.058,267.766,192.34,269.194,197.385,270.669z"/>
		<path d="M71.158,250.992c27.421,1.258,54.004,4.183,79.011,8.692c0.45,0.081,0.898,0.12,1.34,0.12c3.559,0,6.718-2.544,7.372-6.17   c0.735-4.076-1.973-7.977-6.05-8.712c-25.656-4.627-52.904-7.627-80.985-8.915c-4.123-0.164-7.646,3.011-7.836,7.148   C63.82,247.294,67.021,250.803,71.158,250.992z"/>
		<path d="M263.497,142.972c0.696,0,1.405-0.098,2.107-0.303c21.573-6.306,45.426-11.258,70.896-14.719   c4.104-0.558,6.979-4.337,6.422-8.441c-0.558-4.104-4.334-6.979-8.441-6.422c-26.208,3.562-50.797,8.67-73.084,15.184   c-3.976,1.162-6.257,5.327-5.095,9.304C257.258,140.848,260.25,142.972,263.497,142.972z"/>
		<path d="M367.479,124.538c0.207,0,0.416-0.008,0.626-0.025c7.802-0.645,15.785-1.156,23.727-1.521   c4.138-0.189,7.338-3.698,7.148-7.836c-0.19-4.138-3.695-7.322-7.836-7.148c-8.124,0.373-16.291,0.896-24.275,1.556   c-4.128,0.341-7.198,3.964-6.857,8.092C360.336,121.574,363.616,124.538,367.479,124.538z"/>
		<path d="M263.497,206.972c0.697,0,1.405-0.098,2.108-0.303c14.623-4.275,30.509-7.971,47.217-10.984   c4.076-0.735,6.785-4.636,6.049-8.712c-0.735-4.077-4.636-6.783-8.712-6.05c-17.227,3.107-33.633,6.926-48.763,11.348   c-3.976,1.163-6.256,5.328-5.094,9.304C257.258,204.848,260.25,206.972,263.497,206.972z"/>
		<path d="M391.144,172.008c-16.483,0.757-32.822,2.114-48.563,4.035c-4.112,0.501-7.038,4.241-6.537,8.353   c0.464,3.804,3.698,6.593,7.436,6.593c0.303,0,0.609-0.019,0.917-0.057c15.368-1.874,31.327-3.2,47.434-3.939   c4.138-0.19,7.338-3.698,7.148-7.836C398.79,175.018,395.267,171.827,391.144,172.008z"/>
		<path d="M263.497,174.972c0.697,0,1.405-0.098,2.107-0.303c5.042-1.475,10.324-2.902,15.7-4.246   c4.019-1.005,6.462-5.076,5.458-9.095c-1.004-4.019-5.08-6.464-9.095-5.458c-5.566,1.392-11.041,2.872-16.271,4.4   c-3.976,1.163-6.257,5.328-5.095,9.304C257.258,172.848,260.25,174.972,263.497,174.972z"/>
		<path d="M391.144,140.008c-28.081,1.288-55.329,4.288-80.986,8.915c-4.077,0.735-6.785,4.636-6.05,8.712   c0.654,3.627,3.813,6.17,7.372,6.17c0.442,0,0.89-0.039,1.34-0.12c25.007-4.51,51.59-7.435,79.011-8.692   c4.138-0.189,7.338-3.698,7.148-7.836C398.79,143.019,395.285,139.822,391.144,140.008z"/>
		<path d="M263.497,238.972c0.697,0,1.405-0.098,2.108-0.303c23.858-6.975,50.37-12.27,78.799-15.738   c4.112-0.501,7.038-4.241,6.537-8.353c-0.501-4.112-4.243-7.044-8.353-6.536c-29.236,3.566-56.553,9.027-81.191,16.229   c-3.976,1.163-6.256,5.328-5.094,9.304C257.258,236.848,260.25,238.972,263.497,238.972z"/>
		<path d="M391.144,204.008c-5.417,0.249-10.858,0.563-16.173,0.937c-4.132,0.289-7.247,3.874-6.957,8.006   c0.277,3.953,3.57,6.976,7.474,6.976c0.176,0,0.354-0.006,0.532-0.019c5.195-0.364,10.515-0.672,15.813-0.915   c4.138-0.19,7.338-3.698,7.148-7.836C398.79,207.018,395.269,203.822,391.144,204.008z"/>
		<path d="M256.301,297.574c0.957,3.273,3.949,5.397,7.195,5.397c0.697,0,1.405-0.098,2.108-0.303   c14.623-4.275,30.509-7.971,47.217-10.984c4.076-0.735,6.785-4.636,6.049-8.712c-0.735-4.077-4.636-6.782-8.712-6.05   c-17.227,3.107-33.633,6.926-48.763,11.348C257.42,289.434,255.139,293.599,256.301,297.574z"/>
		<path d="M391.144,268.008c-16.483,0.757-32.822,2.114-48.563,4.035c-4.112,0.501-7.038,4.241-6.537,8.353   c0.464,3.804,3.698,6.593,7.436,6.593c0.303,0,0.609-0.019,0.917-0.057c15.368-1.874,31.327-3.2,47.434-3.939   c4.138-0.19,7.338-3.698,7.148-7.836C398.79,271.019,395.267,267.842,391.144,268.008z"/>
		<path d="M342.58,304.043c-29.23,3.566-56.544,9.026-81.184,16.228c-3.976,1.162-6.257,5.327-5.095,9.304   c0.957,3.273,3.949,5.397,7.195,5.397c0.697,0,1.405-0.098,2.107-0.303c23.86-6.975,50.369-12.269,78.792-15.737   c4.112-0.501,7.038-4.241,6.537-8.353C350.431,306.467,346.688,303.532,342.58,304.043z"/>
		<path d="M391.144,300.008c-5.394,0.248-10.838,0.563-16.183,0.938c-4.132,0.289-7.247,3.873-6.958,8.005   c0.277,3.954,3.57,6.977,7.474,6.977c0.176,0,0.354-0.006,0.532-0.019c5.226-0.365,10.549-0.674,15.823-0.916   c4.138-0.19,7.338-3.698,7.148-7.836C398.79,303.019,395.267,299.847,391.144,300.008z"/>
		<path d="M263.497,270.972c0.697,0,1.405-0.098,2.107-0.303c5.042-1.475,10.324-2.902,15.7-4.246   c4.019-1.005,6.462-5.076,5.458-9.095c-1.004-4.019-5.08-6.461-9.095-5.458c-5.566,1.392-11.041,2.872-16.271,4.4   c-3.976,1.163-6.257,5.328-5.095,9.304C257.258,268.848,260.25,270.972,263.497,270.972z"/>
		<path d="M391.144,236.008c-28.081,1.288-55.329,4.288-80.986,8.915c-4.077,0.735-6.785,4.636-6.05,8.712   c0.654,3.627,3.813,6.17,7.372,6.17c0.442,0,0.89-0.039,1.34-0.12c25.007-4.51,51.59-7.435,79.011-8.692   c4.138-0.189,7.338-3.698,7.148-7.836C398.79,239.019,395.285,235.837,391.144,236.008z"/>
	</symbol>

	<!-- gym -->
	<symbol id="gym-icon" viewBox="0 0 442.252 442.252">
		<path id="XMLID_156_" d="M176.807,320.352c10.993-14.92,28.604-23.827,47.11-23.827c18.509,0,36.12,8.907,47.11,23.827  c3.112,4.225,2.21,10.172-2.014,13.283c-4.226,3.115-10.171,2.21-13.283-2.014c-7.535-10.229-19.131-16.097-31.813-16.097  c-12.681,0-24.276,5.867-31.813,16.097c-1.862,2.528-4.74,3.866-7.656,3.866c-1.957,0-3.931-0.603-5.627-1.853  C174.596,330.522,173.694,324.575,176.807,320.352z M138.345,414.627h-24.052V70.824h213.664v197.818c0,5.247,4.253,9.5,9.5,9.5  s9.5-4.253,9.5-9.5V70.824h44.987v24.052c0,5.247,4.253,9.5,9.5,9.5s9.5-4.253,9.5-9.5v-3.083c1.479,0.951,3.24,1.503,5.13,1.503  c5.247,0,9.5-4.253,9.5-9.5V70.824h2.864c5.247,0,9.5-4.253,9.5-9.5s-4.253-9.5-9.5-9.5h-2.864V38.854c0-5.247-4.253-9.5-9.5-9.5  c-1.89,0-3.65,0.552-5.13,1.503v-3.083c0-5.247-4.253-9.5-9.5-9.5s-9.5,4.253-9.5,9.5v24.051h-44.987V9.5c0-5.247-4.253-9.5-9.5-9.5  s-9.5,4.253-9.5,9.5v42.324H114.293V9.5c0-5.247-4.253-9.5-9.5-9.5s-9.5,4.253-9.5,9.5v42.324H50.308V27.773  c0-5.247-4.253-9.5-9.5-9.5s-9.5,4.253-9.5,9.5v3.083c-1.479-0.951-3.24-1.503-5.13-1.503c-5.247,0-9.5,4.253-9.5,9.5v12.971h-2.864  c-5.247,0-9.5,4.253-9.5,9.5s4.253,9.5,9.5,9.5h2.864v12.972c0,5.247,4.253,9.5,9.5,9.5c1.89,0,3.65-0.552,5.13-1.503v3.083  c0,5.247,4.253,9.5,9.5,9.5s9.5-4.253,9.5-9.5V70.824h44.985v343.803H71.24c-5.247,0-9.5,4.253-9.5,9.5s4.253,9.5,9.5,9.5h33.316  c0.079,0.002,0.157,0.003,0.236,0.003s0.157-0.001,0.236-0.003h33.315c5.247,0,9.5-4.253,9.5-9.5S143.592,414.627,138.345,414.627z   M421.337,374.464c0.403-1.718,0.617-3.507,0.617-5.346v-13.459c0-12.339-9.623-22.474-21.759-23.296  c0.289-1.465,0.44-2.979,0.44-4.526V314.38c0-12.876-10.475-23.352-23.351-23.352h-56.641c-5.247,0-9.5,4.253-9.5,9.5  s4.253,9.5,9.5,9.5h56.641c2.358,0,4.351,1.993,4.351,4.352v13.457c0,2.358-1.992,4.352-4.351,4.352  c-0.518,0-42.311,0.121-42.311,0.121c-5.247,0-9.5,4.253-9.5,9.5s4.253,9.5,9.5,9.5h63.627c2.359,0,4.353,1.992,4.353,4.35v13.459  c0,2.358-1.993,4.352-4.353,4.352h-66.627c-5.247,0-9.5,4.253-9.5,9.5s4.253,9.5,9.5,9.5h82.613c2.358,0,4.351,1.992,4.351,4.351  v13.458c0,2.358-1.992,4.352-4.351,4.352H309.255c-5.247,0-9.5,4.253-9.5,9.5s4.253,9.5,9.5,9.5h105.333  c12.876,0,23.351-10.476,23.351-23.352V396.82C437.938,386.291,430.932,377.366,421.337,374.464z M253.938,355.009  c0,16.554-13.467,30.021-30.021,30.021c-16.553,0-30.02-13.467-30.02-30.021s13.467-30.021,30.02-30.021  C240.471,324.988,253.938,338.455,253.938,355.009z M234.938,355.009c0-6.077-4.943-11.021-11.021-11.021  c-6.076,0-11.02,4.943-11.02,11.021s4.943,11.021,11.02,11.021C229.994,366.029,234.938,361.086,234.938,355.009z M311.16,355.009  c0,48.104-39.137,87.242-87.243,87.243c-48.104-0.001-87.242-39.138-87.244-87.243c0.002-48.105,39.14-87.242,87.244-87.243  C272.023,267.767,311.16,306.904,311.16,355.009z M292.16,355.009c0-37.629-30.614-68.242-68.243-68.243  c-37.628,0.001-68.242,30.615-68.244,68.243c0.002,37.628,30.616,68.242,68.244,68.243  C261.546,423.251,292.16,392.638,292.16,355.009z M269.011,376.383c-4.225-3.11-10.172-2.208-13.283,2.016  c-7.423,10.078-19.314,16.095-31.811,16.095c-12.495,0-24.386-6.017-31.809-16.095c-3.111-4.224-9.058-5.126-13.283-2.016  c-4.225,3.111-5.127,9.059-2.016,13.283c10.989,14.92,28.6,23.827,47.107,23.827c18.51,0,36.12-8.907,47.109-23.827  C274.138,385.441,273.235,379.494,269.011,376.383z"/>
	</symbol>

	<!-- psychologist -->
	<symbol id="psychologist-icon" viewBox="0 0 463 463">
		<path d="M381.454,332.115l-55.657-23.971c-0.901-6.508-4.505-12.413-10.128-16.206C337.33,285.418,383,268.26,383,239.5  c0-42.624-5.032-86.58-14.956-130.648c-6.939-30.809-24.399-58.631-49.166-78.342C294.158,10.835,263.127,0,231.5,0  s-62.658,10.835-87.378,30.51c-24.767,19.711-42.227,47.533-49.166,78.342C85.032,152.92,80,196.876,80,239.5  c0,28.76,45.669,45.917,67.33,52.438c-5.622,3.794-9.227,9.698-10.127,16.206l-55.657,23.971C61.167,340.893,48,360.9,48,383.089  V439.5c0,12.958,10.542,23.5,23.5,23.5h320c12.958,0,23.5-10.542,23.5-23.5v-56.411C415,360.9,401.833,340.893,381.454,332.115z   M350.158,370.104l-24.477,6.119c-2.207,0.552-4.044,2.075-4.995,4.143c-0.951,2.066-0.912,4.453,0.106,6.488l14.484,28.97  L322.24,448h-42.589l6.531-78.373c6.324,3.25,13.54,7.285,21.301,12.207c1.221,0.774,2.617,1.166,4.017,1.166  c1.12,0,2.243-0.251,3.283-0.757c3.712-1.808,4.07-4.981,4.385-7.782l5.6-50.427l13.942,6.005L350.158,370.104z M239,448v-59.999  l27.153-27.528c1.538,0.606,3.394,1.363,5.548,2.293L264.599,448H239z M198.401,448l-7.103-85.234  c2.493-1.076,4.59-1.923,6.248-2.567L224,387.018V448H198.401z M140.518,448l-12.807-32.152l14.497-28.993  c1.018-2.035,1.057-4.422,0.106-6.488c-0.951-2.067-2.788-3.591-4.995-4.143l-24.538-6.134l11.039-39.849l14.411-6.207l5.6,50.427  c0.315,2.801,0.673,5.975,4.385,7.782c1.04,0.506,2.163,0.757,3.283,0.757c1.4,0,2.796-0.392,4.017-1.166  c7.761-4.922,14.977-8.956,21.301-12.207L183.349,448H140.518z M152.022,312.313c-0.349-3.148,1.083-6.203,3.737-7.973l8.832-5.888  l24.48,48.961c-7.014,2.862-18.096,7.869-31.426,15.59c-1.176-10.565-3.108-27.978-5.616-50.618  c-0.002-0.024-0.005-0.047-0.008-0.071C152.022,312.314,152.022,312.314,152.022,312.313z M255,173.217  c13.507-3.256,27.493-3.256,41,0v24.356c-13.508,3.256-27.492,3.256-41,0V173.217z M305.706,160.332  c-19.761-6.08-40.65-6.08-60.411,0C242.147,161.3,240,164.207,240,167.5v2.097c-2.638-1.027-5.503-1.597-8.5-1.597  s-5.862,0.57-8.5,1.597V167.5c0-3.293-2.147-6.2-5.294-7.168c-19.761-6.08-40.65-6.08-60.411,0C154.147,161.3,152,164.207,152,167.5  v0.5h-16.203c2.073-20.275,8.215-39.33,18.116-55.982c35.422,16.438,122.862,33.463,170.074,37.873  c1.435,6.017,2.476,12.065,3.142,18.109H311v-0.5C311,164.207,308.853,161.3,305.706,160.332z M167,173.217  c13.507-3.256,27.493-3.256,41,0v24.356c-13.508,3.256-27.492,3.256-41,0V173.217z M135.008,183H152v20.29  c0,3.293,2.147,6.2,5.295,7.169c9.88,3.039,20.042,4.559,30.205,4.559s20.325-1.52,30.205-4.559  c3.147-0.969,5.295-3.876,5.295-7.169V191.5c0-4.687,3.813-8.5,8.5-8.5s8.5,3.813,8.5,8.5v11.79c0,3.293,2.147,6.2,5.295,7.169  c9.88,3.039,20.042,4.559,30.205,4.559s20.325-1.52,30.205-4.559c3.147-0.969,5.295-3.876,5.295-7.169V183h16.992  c0.001,0.167,0.008,0.333,0.008,0.5c0,66.444-43.29,120.5-96.5,120.5S135,249.944,135,183.5  C135,183.333,135.007,183.167,135.008,183z M310.978,312.313c0,0.002,0,0.003-0.001,0.005c-0.002,0.022-0.005,0.044-0.007,0.067  c-2.508,22.641-4.44,40.055-5.616,50.62c-13.331-7.721-24.412-12.728-31.426-15.59l24.48-48.961l8.833,5.889  C309.895,306.11,311.327,309.165,310.978,312.313z M231.985,373.754l-26.309-26.672L185.635,307c13.996,7.707,29.526,12,45.865,12  s31.868-4.293,45.865-12l-20.573,41.146c-0.131,0.263-0.244,0.533-0.342,0.806L231.985,373.754z M95,239.5  c0-41.517,4.909-84.364,14.59-127.354c6.19-27.485,21.771-52.31,43.873-69.9C175.539,24.676,203.252,15,231.5,15  s55.961,9.676,78.037,27.246c22.102,17.591,37.683,42.415,43.873,69.9C363.091,155.136,368,197.983,368,239.5  c0,9.214-11.159,19.367-31.422,28.59c-9,4.096-18.096,7.218-24.737,9.267C331.126,252.988,343,219.899,343,183.5  c0-14.177-1.965-28.515-5.841-42.615c-0.838-3.049-3.5-5.245-6.653-5.489c-64.764-5.015-151.348-26.94-173.551-38.593  c-1.086-0.57-2.332-0.844-3.521-0.859l-3.071,0.014c-2.517,0.017-4.857,1.294-6.232,3.401C128.344,123.553,120,152.648,120,183.5  c0,36.436,11.899,69.555,31.219,93.931C128.216,270.352,95,255.637,95,239.5z M63,439.5v-56.411  c0-16.191,9.609-30.792,24.479-37.196l18.667-8.04l-9.875,35.645c-0.54,1.948-0.27,4.032,0.749,5.779  c1.019,1.747,2.699,3.009,4.661,3.499l22.929,5.732l-11.818,23.637c-0.957,1.913-1.051,4.143-0.26,6.13L124.372,448H71.5  C66.813,448,63,444.187,63,439.5z M400,439.5c0,4.687-3.813,8.5-8.5,8.5h-53.076l12.027-29.684c0.809-1.996,0.72-4.244-0.243-6.171  l-11.818-23.637l22.929-5.732c1.972-0.493,3.659-1.766,4.676-3.525s1.275-3.857,0.717-5.812L356.5,337.701l19.02,8.192  C390.391,352.297,400,366.897,400,383.089V439.5z"/>
	</symbol>

	<!-- mark -->
	<symbol id="mark-icon" viewBox="0 0 400 366">
		<path id="XMLID_2_" d="M91.9,197.8c0,0,18.4-57.5,72.1-57.5c0,0,17.9,53.7,41.8,59.7c0,0,83.6-176.1,194-199.9
		c0,0-35.8,65.6-11.9,104.4c0,0-44.3-2.8-87.8,27.3c-39.4,27.3-78,86.1-82.3,115.9C217.7,247.7,148.6,197.8,91.9,197.8z"/>
		<g id="XMLID_5_">
			<path id="XMLID_1_" d="M168.8,366c-45.1,0-87.5-17.6-119.3-49.4C17.6,284.7,0,242.3,0,197.2c0-45.1,17.6-87.5,49.4-119.3
			C81.3,46,123.7,28.4,168.8,28.4c16.1,0,29.2,13.1,29.2,29.2c0,16.1-13.1,29.2-29.2,29.2c-29.5,0-57.2,11.5-78,32.3
			c-20.8,20.8-32.3,48.6-32.3,78c0,29.5,11.5,57.2,32.3,78c20.8,20.8,48.6,32.3,78,32.3c29.5,0,57.2-11.5,78-32.3
			c20.8-20.8,32.3-48.6,32.3-78c0-16.1,13.1-29.2,29.2-29.2c16.1,0,29.2,13.1,29.2,29.2c0,45.1-17.6,87.5-49.4,119.3
			C256.2,348.4,213.9,366,168.8,366z"/>
		</g>
	</symbol>
	
	<!-- play -->
	<symbol id="play-icon" viewBox="0 0 476.737 476.737">
		<path d="M238.369,0C106.726,0,0,106.726,0,238.369c0,131.675,106.726,238.369,238.369,238.369c131.675,0,238.369-106.694,238.369-238.369C476.737,106.726,370.043,0,238.369,0z M238.369,444.955c-113.908,0-206.586-92.678-206.586-206.586S124.46,31.782,238.369,31.782s206.586,92.678,206.586,206.586      S352.277,444.955,238.369,444.955z" />
		<path d="M343.759,227.976L221.206,130.88c-6.897-5.403-18.084-5.403-24.981,0l-0.159,0.159c-3.305,2.511-5.371,6.007-5.371,9.916v194.191c0,3.973,2.193,7.501,5.594,9.98l-0.064,0.064c6.897,5.435,18.084,5.435,24.981,0      l123.221-97.318c6.929-5.403,6.929-14.207,0-19.61L343.759,227.976z" />
	</symbol>

	<!-- close -->
	<symbol id="close-icon" viewBox="0 0 224.512 224.512">
		<polygon points="224.507,6.997 217.521,0 112.256,105.258 6.998,0 0.005,6.997 105.263,112.254    0.005,217.512 6.998,224.512 112.256,119.24 217.521,224.512 224.507,217.512 119.249,112.254 "/>
	</symbol>

</svg>